Coordinates
version=1
nRows=9
nColumns=36
inDegrees=yes

Units are S.I. units (second, meters, Newtons, ...)
If the header above contains a line with 'inDegrees', this indicates whether rotational values are in degrees (yes) or radians (no).

endheader
time	pelvis_tilt	pelvis_list	pelvis_rotation	pelvis_tx	pelvis_ty	pelvis_tz	hip_flexion_r	hip_adduction_r	hip_rotation_r	knee_angle_r	knee_angle_r_beta	ankle_angle_r	subtalar_angle_r	mtp_angle_r	hip_flexion_l	hip_adduction_l	hip_rotation_l	knee_angle_l	knee_angle_l_beta	ankle_angle_l	subtalar_angle_l	mtp_angle_l	lumbar_extension	lumbar_bending	lumbar_rotation	arm_flex_r	arm_add_r	arm_rot_r	elbow_flex_r	pro_sup_r	arm_flex_l	arm_add_l	arm_rot_l	elbow_flex_l	pro_sup_l
      0.00000000	     -4.54255290	     -1.57731598	      6.96571137	      0.02762773	      0.92830397	     -0.19257746	     28.26591287	      2.63289263	     -3.24260960	      5.72677245	      0.09995103	     -9.27448737	    -14.40600544	     -5.29820221	    -10.84132780	      0.17258828	     -8.60168910	     11.64304591	      0.20320949	     18.11261921	      2.59730231	     -5.29820221	     -1.65807856	     -1.03258105	    -13.15940775	     -4.55496317	     -3.51209536	    -16.30461506	     28.31660333	     99.34307836	     24.57376990	    -11.36914185	     -6.40691169	     57.85341540	    104.05157692
      0.01000000	     -4.10367367	     -2.22543723	      7.04614035	      0.04074956	      0.92934880	     -0.19135244	     27.59777695	      3.39879139	     -3.70007411	      6.69864050	      0.11691333	     -9.57013928	    -14.79015490	     -5.31490916	    -10.96765188	     -0.98062885	     -8.69234924	     13.62985624	      0.23788587	     17.15370318	      2.08492010	     -5.31490916	     -1.96888677	     -0.17780184	    -12.83306738	     -4.37894849	     -3.61233071	    -16.37005772	     28.05049079	     99.35691930	     24.12009005	    -10.82714087	     -6.32011901	     58.10060892	    104.14032998
      0.02000000	     -3.66415261	     -2.88656121	      7.13229682	      0.05381717	      0.93046670	     -0.19011505	     26.93224467	      4.18232220	     -4.23587808	      7.66390967	      0.13376046	     -9.88435822	    -15.14454243	     -5.32978177	    -11.00246131	     -2.16285848	     -8.70978028	     15.74462602	      0.27479556	     16.05731557	      1.48955449	     -5.32978177	     -2.30551070	      0.73064737	    -12.53284418	     -4.12957269	     -3.69101535	    -16.45343397	     27.76781016	     99.36081483	     23.57495679	    -10.30027770	     -6.28721087	     58.34071953	    104.21407181
      0.03000000	     -3.32698862	     -3.57703793	      7.29915504	      0.06698924	      0.93160061	     -0.18886005	     26.34223582	      4.96992652	     -5.21860274	      8.52846915	      0.14884987	    -10.29108716	    -15.65325278	     -5.36780578	    -10.68517937	     -3.42861398	     -8.79273517	     18.24882104	      0.31850201	     14.50221412	      0.16261654	     -5.36780578	     -2.41466338	      1.62402547	    -12.47147102	     -3.80626728	     -3.69619250	    -16.56560454	     27.39071494	     99.39481959	     22.75127052	     -9.79828175	     -6.50776588	     58.68795502	    104.34560057
      0.04000000	     -2.91487659	     -4.12144356	      7.37189690	      0.07994910	      0.93296364	     -0.18733533	     25.62209670	      5.71368887	     -5.64070853	      9.39416555	      0.16395912	    -10.10321853	    -16.08727747	     -5.39410443	    -10.30502470	     -4.54201185	     -8.59333459	     20.98493020	      0.36625613	     12.82412372	     -0.85456008	     -5.39410443	     -2.72063592	      2.32192841	    -12.08967632	     -3.52047440	     -3.69659621	    -16.55873247	     27.11742410	     99.41755899	     22.10292885	     -9.23911398	     -6.52780917	     58.89540692	    104.43841458
      0.05000000	     -2.69821434	     -4.57569589	      7.43575499	      0.09268941	      0.93431458	     -0.18581201	     25.13132121	      6.34894631	     -6.02038612	     10.34902492	      0.18062456	     -9.64845232	    -16.30269376	     -5.49514866	     -9.54065774	     -5.41367675	     -7.75775566	     23.87015102	      0.41661273	     10.12435240	     -3.27435521	     -5.49514866	     -2.80521339	      2.89184199	    -11.82172714	     -3.13486077	     -3.67039085	    -16.31901436	     26.75935532	     99.52057822	     21.25219633	     -8.72638032	     -6.69833476	     59.06829039	    104.70437318
      0.06000000	     -2.17828634	     -4.99839915	      7.42779145	      0.10526435	      0.93613757	     -0.18392175	     24.16847333	      7.10379932	     -6.08309819	     11.04897191	      0.19284094	     -9.07077490	    -16.62210693	     -5.51031384	     -8.86685695	     -6.47854228	     -7.56606397	     27.17742515	      0.47433555	      8.21468848	     -3.67801442	     -5.51031384	     -3.35820104	      3.41604776	    -11.16779116	     -2.78715704	     -3.57113476	    -16.23421099	     26.63059024	     99.52771068	     20.71682152	     -8.17951142	     -6.52469910	     59.03815895	    104.75137788
      0.07000000	     -2.10851631	     -5.43396954	      7.41098308	      0.11781079	      0.93748036	     -0.18216977	     23.68340965	      7.76751505	     -6.49952387	     11.74268167	      0.20494846	     -7.99042858	    -16.59034906	     -5.59785080	     -7.45935334	     -7.41693211	     -7.05473113	     30.69935699	      0.53580486	      4.71569652	     -6.11624044	     -5.59785080	     -3.23250087	      3.93122022	    -10.66291861	     -2.48361024	     -3.58793821	    -15.95727107	     26.44858601	     99.55754146	     19.86781683	     -7.73032910	     -6.21778002	     58.65459617	    104.95202781
      0.08000000	     -1.80178730	     -5.84607747	      7.38198841	      0.13016562	      0.93910739	     -0.18014548	     22.77581671	      8.52125633	     -6.57687871	     12.10922836	      0.21134590	     -7.10147018	    -16.68604187	     -5.63874473	     -6.14881390	     -8.50793989	     -6.85701670	     34.43272030	      0.60096434	      1.88601477	     -7.00005537	     -5.63874473	     -3.46088378	      4.35185680	     -9.98413022	     -2.17833428	     -3.47422316	    -15.76247183	     26.39987525	     99.57378926	     19.17263362	     -7.25970053	     -5.89494535	     58.31035233	    105.04589576
